<svg width="197" height="63" viewBox="0 0 197 63" fill="none" xmlns="http://www.w3.org/2000/svg">
<path d="M92.3215 44V13.2H84.9295V31.196L73.3575 13.2H66.1855V44H73.5775V26.004L85.1055 44H92.3215ZM104.086 13.2H96.518V44H104.086V13.2ZM121.962 13.2V34.54C121.962 36.784 120.642 38.324 117.958 38.324C115.098 38.324 113.954 36.696 113.954 34.452V34.056H106.738V34.452C106.738 40.612 111.05 44.616 118.046 44.616C124.822 44.616 129.53 40.436 129.53 34.54V13.2H121.962ZM151.842 32.692C151.842 36.388 149.642 38.324 146.298 38.324C142.954 38.324 140.754 36.388 140.754 32.692V13.2H133.186V32.516C133.186 39.732 138.246 44.616 146.298 44.616C154.35 44.616 159.41 39.732 159.41 32.516V13.2H151.842V32.692ZM178.18 29.964L170.084 13.2H163.132V44H170.392V27.72L175.188 37.136H181.172L186.012 27.72V44H193.272V13.2H186.32L178.18 29.964Z" fill="white"/>
<path d="M31.4752 20.475V61.0312L55.0816 42.525V1.96875L31.4752 20.475Z" fill="#FFC38B"/>
<path d="M7.86877 1.96875V42.525L31.4752 61.0312V20.475L7.86877 1.96875Z" fill="#FF926B"/>
<path d="M31.4752 20.475L7.86877 1.96875V42.525L31.4752 61.0312L55.0816 42.525V1.96875L31.4752 20.475Z" stroke="white" stroke-width="2.56034" stroke-miterlimit="10" stroke-linecap="round" stroke-linejoin="round"/>
</svg>
